<mxfile host="app.diagrams.net" agent="Mozilla/5.0 (Windows NT 10.0; Win64; x64) AppleWebKit/537.36 (KHTML, like Gecko) Chrome/135.0.0.0 Safari/537.36" version="26.2.14">
  <diagram name="Page-1" id="fzUSnpYNxwStdD5dp79B">
    <mxGraphModel dx="1042" dy="623" grid="1" gridSize="10" guides="1" tooltips="1" connect="1" arrows="1" fold="1" page="1" pageScale="1" pageWidth="827" pageHeight="1169" math="0" shadow="0">
      <root>
        <mxCell id="0" />
        <mxCell id="1" parent="0" />
        <mxCell id="z4jwQ7vDkNCIR_Gq2Rk2-1" value="Users" style="whiteSpace=wrap;html=1;aspect=fixed;" vertex="1" parent="1">
          <mxGeometry x="340" y="20" width="110" height="110" as="geometry" />
        </mxCell>
        <mxCell id="z4jwQ7vDkNCIR_Gq2Rk2-2" value="DOKS Cloud" style="whiteSpace=wrap;html=1;aspect=fixed;" vertex="1" parent="1">
          <mxGeometry x="60" y="220" width="719" height="719" as="geometry" />
        </mxCell>
        <mxCell id="z4jwQ7vDkNCIR_Gq2Rk2-5" value="" style="shape=actor;whiteSpace=wrap;html=1;" vertex="1" parent="1">
          <mxGeometry x="375" y="40" width="40" height="60" as="geometry" />
        </mxCell>
        <mxCell id="z4jwQ7vDkNCIR_Gq2Rk2-9" value="" style="whiteSpace=wrap;html=1;aspect=fixed;" vertex="1" parent="1">
          <mxGeometry x="134" y="350" width="560" height="560" as="geometry" />
        </mxCell>
        <mxCell id="z4jwQ7vDkNCIR_Gq2Rk2-11" value="" style="swimlane;startSize=0;" vertex="1" collapsed="1" parent="1">
          <mxGeometry x="190" y="410" width="100" height="240" as="geometry">
            <mxRectangle x="200" y="400" width="110" height="200" as="alternateBounds" />
          </mxGeometry>
        </mxCell>
        <mxCell id="z4jwQ7vDkNCIR_Gq2Rk2-16" value="" style="shape=cylinder3;whiteSpace=wrap;html=1;boundedLbl=1;backgroundOutline=1;size=15;" vertex="1" parent="z4jwQ7vDkNCIR_Gq2Rk2-11">
          <mxGeometry x="25" y="20" width="50" height="80" as="geometry" />
        </mxCell>
        <mxCell id="z4jwQ7vDkNCIR_Gq2Rk2-17" value="" style="shape=cylinder3;whiteSpace=wrap;html=1;boundedLbl=1;backgroundOutline=1;size=15;" vertex="1" parent="z4jwQ7vDkNCIR_Gq2Rk2-11">
          <mxGeometry x="50" y="30" width="40" height="70" as="geometry" />
        </mxCell>
        <mxCell id="z4jwQ7vDkNCIR_Gq2Rk2-70" value="" style="aspect=fixed;sketch=0;html=1;dashed=0;whitespace=wrap;verticalLabelPosition=bottom;verticalAlign=top;fillColor=#2875E2;strokeColor=#ffffff;points=[[0.005,0.63,0],[0.1,0.2,0],[0.9,0.2,0],[0.5,0,0],[0.995,0.63,0],[0.72,0.99,0],[0.5,1,0],[0.28,0.99,0]];shape=mxgraph.kubernetes.icon2;kubernetesLabel=1;prIcon=hpa" vertex="1" parent="z4jwQ7vDkNCIR_Gq2Rk2-11">
          <mxGeometry x="25" y="80" width="50" height="48" as="geometry" />
        </mxCell>
        <mxCell id="z4jwQ7vDkNCIR_Gq2Rk2-71" value="" style="aspect=fixed;sketch=0;html=1;dashed=0;whitespace=wrap;verticalLabelPosition=bottom;verticalAlign=top;fillColor=#2875E2;strokeColor=#ffffff;points=[[0.005,0.63,0],[0.1,0.2,0],[0.9,0.2,0],[0.5,0,0],[0.995,0.63,0],[0.72,0.99,0],[0.5,1,0],[0.28,0.99,0]];shape=mxgraph.kubernetes.icon2;kubernetesLabel=1;prIcon=hpa" vertex="1" parent="z4jwQ7vDkNCIR_Gq2Rk2-11">
          <mxGeometry x="30" y="90" width="50" height="48" as="geometry" />
        </mxCell>
        <mxCell id="z4jwQ7vDkNCIR_Gq2Rk2-72" value="" style="aspect=fixed;sketch=0;html=1;dashed=0;whitespace=wrap;verticalLabelPosition=bottom;verticalAlign=top;fillColor=#2875E2;strokeColor=#ffffff;points=[[0.005,0.63,0],[0.1,0.2,0],[0.9,0.2,0],[0.5,0,0],[0.995,0.63,0],[0.72,0.99,0],[0.5,1,0],[0.28,0.99,0]];shape=mxgraph.kubernetes.icon2;kubernetesLabel=1;prIcon=ing" vertex="1" parent="z4jwQ7vDkNCIR_Gq2Rk2-11">
          <mxGeometry x="25" y="97" width="50" height="48" as="geometry" />
        </mxCell>
        <mxCell id="z4jwQ7vDkNCIR_Gq2Rk2-14" value="P2" style="shape=cylinder3;whiteSpace=wrap;html=1;boundedLbl=1;backgroundOutline=1;size=15;" vertex="1" parent="1">
          <mxGeometry x="220" y="555" width="40" height="60" as="geometry" />
        </mxCell>
        <mxCell id="z4jwQ7vDkNCIR_Gq2Rk2-19" value="P1" style="shape=cylinder3;whiteSpace=wrap;html=1;boundedLbl=1;backgroundOutline=1;size=15;" vertex="1" parent="1">
          <mxGeometry x="220" y="430" width="40" height="60" as="geometry" />
        </mxCell>
        <mxCell id="z4jwQ7vDkNCIR_Gq2Rk2-28" value="" style="swimlane;startSize=0;" vertex="1" collapsed="1" parent="1">
          <mxGeometry x="440" y="410" width="100" height="240" as="geometry">
            <mxRectangle x="200" y="400" width="110" height="200" as="alternateBounds" />
          </mxGeometry>
        </mxCell>
        <mxCell id="z4jwQ7vDkNCIR_Gq2Rk2-29" value="" style="shape=cylinder3;whiteSpace=wrap;html=1;boundedLbl=1;backgroundOutline=1;size=15;" vertex="1" parent="z4jwQ7vDkNCIR_Gq2Rk2-28">
          <mxGeometry x="25" y="20" width="50" height="80" as="geometry" />
        </mxCell>
        <mxCell id="z4jwQ7vDkNCIR_Gq2Rk2-30" value="" style="shape=cylinder3;whiteSpace=wrap;html=1;boundedLbl=1;backgroundOutline=1;size=15;" vertex="1" parent="z4jwQ7vDkNCIR_Gq2Rk2-28">
          <mxGeometry x="50" y="30" width="40" height="70" as="geometry" />
        </mxCell>
        <mxCell id="z4jwQ7vDkNCIR_Gq2Rk2-32" value="" style="shape=cylinder3;whiteSpace=wrap;html=1;boundedLbl=1;backgroundOutline=1;size=15;" vertex="1" parent="z4jwQ7vDkNCIR_Gq2Rk2-28">
          <mxGeometry x="20" y="155" width="40" height="60" as="geometry" />
        </mxCell>
        <mxCell id="z4jwQ7vDkNCIR_Gq2Rk2-68" value="" style="aspect=fixed;sketch=0;html=1;dashed=0;whitespace=wrap;verticalLabelPosition=bottom;verticalAlign=top;fillColor=#2875E2;strokeColor=#ffffff;points=[[0.005,0.63,0],[0.1,0.2,0],[0.9,0.2,0],[0.5,0,0],[0.995,0.63,0],[0.72,0.99,0],[0.5,1,0],[0.28,0.99,0]];shape=mxgraph.kubernetes.icon2;prIcon=hpa" vertex="1" parent="z4jwQ7vDkNCIR_Gq2Rk2-28">
          <mxGeometry x="20" y="96" width="50" height="48" as="geometry" />
        </mxCell>
        <mxCell id="z4jwQ7vDkNCIR_Gq2Rk2-31" value="P3" style="shape=cylinder3;whiteSpace=wrap;html=1;boundedLbl=1;backgroundOutline=1;size=15;" vertex="1" parent="1">
          <mxGeometry x="465" y="430" width="40" height="60" as="geometry" />
        </mxCell>
        <mxCell id="z4jwQ7vDkNCIR_Gq2Rk2-34" value="" style="swimlane;startSize=0;" vertex="1" collapsed="1" parent="1">
          <mxGeometry x="315" y="650" width="100" height="240" as="geometry">
            <mxRectangle x="200" y="400" width="110" height="200" as="alternateBounds" />
          </mxGeometry>
        </mxCell>
        <mxCell id="z4jwQ7vDkNCIR_Gq2Rk2-35" value="" style="shape=cylinder3;whiteSpace=wrap;html=1;boundedLbl=1;backgroundOutline=1;size=15;" vertex="1" parent="z4jwQ7vDkNCIR_Gq2Rk2-34">
          <mxGeometry x="25" y="20" width="50" height="80" as="geometry" />
        </mxCell>
        <mxCell id="z4jwQ7vDkNCIR_Gq2Rk2-36" value="" style="shape=cylinder3;whiteSpace=wrap;html=1;boundedLbl=1;backgroundOutline=1;size=15;" vertex="1" parent="z4jwQ7vDkNCIR_Gq2Rk2-34">
          <mxGeometry x="50" y="30" width="40" height="70" as="geometry" />
        </mxCell>
        <mxCell id="z4jwQ7vDkNCIR_Gq2Rk2-37" value="" style="shape=cylinder3;whiteSpace=wrap;html=1;boundedLbl=1;backgroundOutline=1;size=15;" vertex="1" parent="z4jwQ7vDkNCIR_Gq2Rk2-34">
          <mxGeometry x="20" y="155" width="40" height="60" as="geometry" />
        </mxCell>
        <mxCell id="z4jwQ7vDkNCIR_Gq2Rk2-40" value="Text" style="text;html=1;align=center;verticalAlign=middle;whiteSpace=wrap;rounded=0;" vertex="1" parent="z4jwQ7vDkNCIR_Gq2Rk2-34">
          <mxGeometry x="20" y="180" width="60" height="30" as="geometry" />
        </mxCell>
        <mxCell id="z4jwQ7vDkNCIR_Gq2Rk2-38" value="Node 1" style="text;html=1;align=center;verticalAlign=middle;whiteSpace=wrap;rounded=0;" vertex="1" parent="1">
          <mxGeometry x="220" y="615" width="60" height="30" as="geometry" />
        </mxCell>
        <mxCell id="z4jwQ7vDkNCIR_Gq2Rk2-39" value="Node 2" style="text;html=1;align=center;verticalAlign=middle;whiteSpace=wrap;rounded=0;" vertex="1" parent="1">
          <mxGeometry x="445" y="615" width="60" height="30" as="geometry" />
        </mxCell>
        <mxCell id="z4jwQ7vDkNCIR_Gq2Rk2-41" value="Node 3&lt;br&gt;(For Auto-scaling)" style="text;html=1;align=center;verticalAlign=middle;whiteSpace=wrap;rounded=0;" vertex="1" parent="1">
          <mxGeometry x="335" y="710" width="60" height="30" as="geometry" />
        </mxCell>
        <mxCell id="z4jwQ7vDkNCIR_Gq2Rk2-42" value="DOKS Cluster hosting the web App" style="text;html=1;align=center;verticalAlign=middle;whiteSpace=wrap;rounded=0;" vertex="1" parent="1">
          <mxGeometry x="610" y="370" width="60" height="30" as="geometry" />
        </mxCell>
        <mxCell id="z4jwQ7vDkNCIR_Gq2Rk2-43" value="DO Cloud" style="text;html=1;align=center;verticalAlign=middle;whiteSpace=wrap;rounded=0;" vertex="1" parent="1">
          <mxGeometry x="670" y="240" width="60" height="30" as="geometry" />
        </mxCell>
        <mxCell id="z4jwQ7vDkNCIR_Gq2Rk2-52" value="Users" style="text;html=1;align=center;verticalAlign=middle;whiteSpace=wrap;rounded=0;" vertex="1" parent="1">
          <mxGeometry x="360" y="100" width="60" height="30" as="geometry" />
        </mxCell>
        <mxCell id="z4jwQ7vDkNCIR_Gq2Rk2-53" value="" style="endArrow=classic;html=1;rounded=0;" edge="1" parent="1">
          <mxGeometry width="50" height="50" relative="1" as="geometry">
            <mxPoint x="390" y="133" as="sourcePoint" />
            <mxPoint x="388.41926829268283" y="310" as="targetPoint" />
          </mxGeometry>
        </mxCell>
        <mxCell id="z4jwQ7vDkNCIR_Gq2Rk2-62" value="" style="rounded=1;whiteSpace=wrap;html=1;" vertex="1" parent="1">
          <mxGeometry x="335" y="310" width="115" height="80" as="geometry" />
        </mxCell>
        <mxCell id="z4jwQ7vDkNCIR_Gq2Rk2-64" value="K8s LB" style="text;html=1;align=center;verticalAlign=middle;whiteSpace=wrap;rounded=0;" vertex="1" parent="1">
          <mxGeometry x="365" y="350" width="60" height="30" as="geometry" />
        </mxCell>
        <mxCell id="z4jwQ7vDkNCIR_Gq2Rk2-67" value="" style="aspect=fixed;sketch=0;html=1;dashed=0;whitespace=wrap;verticalLabelPosition=bottom;verticalAlign=top;fillColor=#2875E2;strokeColor=#ffffff;points=[[0.005,0.63,0],[0.1,0.2,0],[0.9,0.2,0],[0.5,0,0],[0.995,0.63,0],[0.72,0.99,0],[0.5,1,0],[0.28,0.99,0]];shape=mxgraph.kubernetes.icon2;kubernetesLabel=1;prIcon=svc" vertex="1" parent="1">
          <mxGeometry x="365" y="310" width="50" height="48" as="geometry" />
        </mxCell>
        <mxCell id="z4jwQ7vDkNCIR_Gq2Rk2-69" value="" style="aspect=fixed;sketch=0;html=1;dashed=0;whitespace=wrap;verticalLabelPosition=bottom;verticalAlign=top;fillColor=#2875E2;strokeColor=#ffffff;points=[[0.005,0.63,0],[0.1,0.2,0],[0.9,0.2,0],[0.5,0,0],[0.995,0.63,0],[0.72,0.99,0],[0.5,1,0],[0.28,0.99,0]];shape=mxgraph.kubernetes.icon2;kubernetesLabel=1;prIcon=hpa" vertex="1" parent="1">
          <mxGeometry x="460" y="537" width="50" height="48" as="geometry" />
        </mxCell>
        <mxCell id="z4jwQ7vDkNCIR_Gq2Rk2-73" value="" style="aspect=fixed;sketch=0;html=1;dashed=0;whitespace=wrap;verticalLabelPosition=bottom;verticalAlign=top;fillColor=#2875E2;strokeColor=#ffffff;points=[[0.005,0.63,0],[0.1,0.2,0],[0.9,0.2,0],[0.5,0,0],[0.995,0.63,0],[0.72,0.99,0],[0.5,1,0],[0.28,0.99,0]];shape=mxgraph.kubernetes.icon2;kubernetesLabel=1;prIcon=hpa" vertex="1" parent="1">
          <mxGeometry x="220" y="500" width="50" height="48" as="geometry" />
        </mxCell>
      </root>
    </mxGraphModel>
  </diagram>
</mxfile>
